<svg xmlns="http://www.w3.org/2000/svg" viewBox="0 0 200 200">
  <!-- Document background -->
  <rect x="40" y="30" width="120" height="150" rx="5" fill="#F0F4F8" stroke="#3182CE" stroke-width="2"/>
  
  <!-- Document header -->
  <rect x="50" y="40" width="100" height="10" rx="2" fill="#3182CE"/>
  
  <!-- Document sections -->
  <rect x="50" y="60" width="80" height="6" rx="1" fill="#4299E1"/>
  <rect x="50" y="75" width="100" height="4" rx="1" fill="#A0AEC0"/>
  <rect x="50" y="85" width="90" height="4" rx="1" fill="#A0AEC0"/>
  <rect x="50" y="95" width="95" height="4" rx="1" fill="#A0AEC0"/>
  
  <rect x="50" y="110" width="80" height="6" rx="1" fill="#4299E1"/>
  <rect x="50" y="125" width="100" height="4" rx="1" fill="#A0AEC0"/>
  <rect x="50" y="135" width="90" height="4" rx="1" fill="#A0AEC0"/>
  <rect x="50" y="145" width="95" height="4" rx="1" fill="#A0AEC0"/>
  
  <rect x="50" y="160" width="80" height="6" rx="1" fill="#4299E1"/>
  <rect x="50" y="175" width="100" height="4" rx="1" fill="#A0AEC0"/>
  
  <!-- Highlight element -->
  <rect x="130" y="40" width="20" height="20" rx="3" fill="#48BB78"/>
  <path d="M135 50 L140 55 L145 45" stroke="white" stroke-width="2" fill="none" stroke-linecap="round" stroke-linejoin="round"/>
  
  <!-- Magnifying glass -->
  <circle cx="40" cy="160" r="20" fill="#EBF4FF" stroke="#3182CE" stroke-width="2"/>
  <circle cx="40" cy="160" r="12" fill="none" stroke="#3182CE" stroke-width="2"/>
  <line x1="50" y1="170" x2="55" y2="175" stroke="#3182CE" stroke-width="3" stroke-linecap="round"/>
</svg>