<svg xmlns="http://www.w3.org/2000/svg" viewBox="0 0 100 100">
  <!-- Background circle -->
  <circle cx="50" cy="50" r="48" fill="#EBF4FF" stroke="#3182CE" stroke-width="2"/>
  
  <!-- Project map concept -->
  <g transform="translate(25, 25) scale(0.5)">
    <!-- Connection lines -->
    <line x1="20" y1="20" x2="50" y2="20" stroke="#3182CE" stroke-width="3"/>
    <line x1="20" y1="20" x2="20" y2="50" stroke="#3182CE" stroke-width="3"/>
    <line x1="20" y1="50" x2="50" y2="50" stroke="#3182CE" stroke-width="3"/>
    <line x1="50" y1="20" x2="50" y2="50" stroke="#3182CE" stroke-width="3"/>
    <line x1="50" y1="50" x2="80" y2="50" stroke="#3182CE" stroke-width="3"/>
    <line x1="50" y1="50" x2="50" y2="80" stroke="#3182CE" stroke-width="3"/>
    <line x1="80" y1="50" x2="80" y2="80" stroke="#3182CE" stroke-width="3"/>
    <line x1="50" y1="80" x2="80" y2="80" stroke="#3182CE" stroke-width="3"/>
    
    <!-- Nodes -->
    <circle cx="20" cy="20" r="8" fill="#4299E1" stroke="#3182CE" stroke-width="2"/>
    <circle cx="50" cy="20" r="8" fill="#4299E1" stroke="#3182CE" stroke-width="2"/>
    <circle cx="20" cy="50" r="8" fill="#4299E1" stroke="#3182CE" stroke-width="2"/>
    <circle cx="50" cy="50" r="10" fill="#3182CE" stroke="#3182CE" stroke-width="2"/>
    <circle cx="80" cy="50" r="8" fill="#4299E1" stroke="#3182CE" stroke-width="2"/>
    <circle cx="50" cy="80" r="8" fill="#4299E1" stroke="#3182CE" stroke-width="2"/>
    <circle cx="80" cy="80" r="8" fill="#4299E1" stroke="#3182CE" stroke-width="2"/>
  </g>
  
  <!-- Magnifying glass (mapping concept) -->
  <circle cx="60" cy="60" r="15" fill="none" stroke="#3182CE" stroke-width="3"/>
  <line x1="70" y1="70" x2="80" y2="80" stroke="#3182CE" stroke-width="4" stroke-linecap="round"/>
  
  <!-- Document (representation of knowledge transfer) -->
  <path d="M25,15 h20 v25 h-5 v5 h-15 z" fill="white" stroke="#3182CE" stroke-width="2"/>
  <path d="M40,40 v-5 h5" fill="none" stroke="#3182CE" stroke-width="2"/>
  <line x1="30" y1="20" x2="40" y2="20" stroke="#3182CE" stroke-width="1.5"/>
  <line x1="30" y1="25" x2="40" y2="25" stroke="#3182CE" stroke-width="1.5"/>
  <line x1="30" y1="30" x2="35" y2="30" stroke="#3182CE" stroke-width="1.5"/>
</svg>